<svg width="42" height="26" viewBox="0 0 42 26" fill="none" xmlns="http://www.w3.org/2000/svg">
<path d="M35.1155 0V15.0813L22.5751 0H17.7519H16.9078V13.6562C16.9078 15.9125 16.4255 17.575 15.4609 18.6437C14.4962 19.7125 13.1698 20.1875 11.3611 20.1875C7.62311 20.1875 5.8144 18.05 5.8144 13.5375V0H0.0265198V13.8938C0.0265198 17.4562 0.991166 20.3062 3.04104 22.325C4.97033 24.225 7.86427 25.2937 11.4817 25.2937C15.0991 25.2937 17.8725 24.3438 19.9224 22.325C21.8516 20.425 22.9369 17.575 22.9369 13.8938V8.66875L23.9015 9.7375L36.3213 24.8188H41.1446V0H35.1155Z" fill="#EBE7E5"/>
</svg>
